<svg width="421" height="278" viewBox="0 0 421 278" fill="none" xmlns="http://www.w3.org/2000/svg">
<path d="M193.994 89.8969C194.565 89.3112 195.255 88.6432 196.039 87.9572C198.4 85.8906 201.561 83.7117 204.87 83.0752C210.288 82.0434 214.116 83.5956 216.125 85.102L216.171 85.1368L216.224 85.16C216.415 85.2436 216.72 85.4532 217.143 85.8204C217.555 86.1787 218.048 86.6584 218.611 87.2463C219.735 88.4213 221.119 90.0059 222.667 91.8638C225.763 95.5782 229.497 100.361 233.102 105.092C236.707 109.821 240.18 114.493 242.752 117.983C244.038 119.728 245.098 121.177 245.837 122.19C246.107 122.56 246.334 122.871 246.514 123.118H232.706C229.713 123.118 226.964 121.497 225.463 118.869L225.462 118.868C222.944 114.495 218.864 107.694 214.58 101.734C212.439 98.7544 210.239 95.9738 208.152 93.8088C206.081 91.6613 204.06 90.054 202.273 89.5177L202.271 89.5171C199.236 88.6206 196.548 89.0357 194.626 89.6708C194.405 89.7437 194.194 89.8196 193.994 89.8969Z" fill="#323E48" stroke="#323E48"/>
<path d="M223.939 66.4413C223.418 66.8563 222.917 67.2403 222.473 67.573C222.735 67.0592 223.033 66.4704 223.342 65.8467C224.315 63.8844 225.422 61.5392 225.899 60.1106C226.432 58.5783 226.831 57.2458 227.098 56.2955C227.232 55.82 227.332 55.4398 227.399 55.1779C227.422 55.0878 227.441 55.0117 227.456 54.9505L231.655 51.8785C231.643 51.93 231.63 51.9828 231.617 52.0367C231.405 52.9308 231.105 54.1496 230.751 55.45C230.396 56.7514 229.99 58.129 229.568 59.3422C229.141 60.5669 228.71 61.5845 228.315 62.1919C227.506 63.4375 225.651 65.0787 223.939 66.4413Z" fill="#323E48" stroke="#323E48"/>
<path d="M219.32 67.4786L219.32 67.4785L219.314 67.4874C218.997 67.9769 218.285 68.6615 217.335 69.438C216.4 70.2019 215.282 71.0168 214.204 71.7661C213.453 72.2875 212.724 72.7752 212.092 73.1896C212.243 72.9629 212.399 72.726 212.558 72.4839C213.492 71.0581 214.544 69.3991 214.894 68.6278C215.238 67.8719 215.876 66.0573 216.418 64.462C216.692 63.6578 216.945 62.8994 217.129 62.3422C217.221 62.0635 217.296 61.8351 217.348 61.6763L217.373 61.6L223.305 57.8652C223.115 58.5607 222.84 59.5063 222.486 60.5689C221.745 62.7908 220.671 65.4848 219.32 67.4786Z" fill="#323E48" stroke="#323E48"/>
<path d="M206.869 66.8665L212.34 63.9701C212.176 64.5633 211.946 65.3535 211.663 66.2326C211.054 68.1275 210.208 70.3958 209.247 71.9983C208.312 73.4931 206.37 75.0968 204.603 76.3523C204.093 76.7143 203.604 77.0432 203.166 77.3275C203.285 77.1336 203.408 76.9297 203.534 76.7186C204.344 75.3641 205.289 73.6793 205.77 72.4448C206.387 70.9348 206.66 69.4651 206.779 68.3759C206.839 67.8298 206.86 67.3764 206.867 67.0577C206.868 66.9873 206.869 66.9234 206.869 66.8665Z" fill="#323E48" stroke="#323E48"/>
<path d="M202.556 42.6093V42.6709L202.57 42.7306C202.696 43.2321 202.758 43.6709 202.79 43.9827C202.805 44.1384 202.813 44.2617 202.817 44.3445C202.819 44.3859 202.819 44.4171 202.82 44.4371L202.82 44.4586L202.82 44.4625V44.4627V44.463V44.4632V68.4041L202.818 68.433C202.816 68.463 202.813 68.5081 202.808 68.5669C202.798 68.6844 202.782 68.8566 202.759 69.0724C202.712 69.5044 202.635 70.1093 202.514 70.7993C202.268 72.1894 201.849 73.883 201.157 75.2043C200.442 76.5686 199.33 78.3035 198.388 79.7079C197.919 80.4078 197.495 81.0214 197.188 81.4599C197.034 81.6791 196.91 81.8545 196.825 81.9749C196.806 82.0019 196.789 82.0261 196.773 82.0474C196.755 82.0737 196.739 82.0955 196.727 82.1128L196.701 82.1482L196.701 82.1488L186.782 94.448L186.757 94.4791L186.737 94.5138L186.613 94.7322V94.7207V94.622V94.5229V94.4235V94.3237V94.2235V94.123V94.0222V93.9209V93.8194V93.7175V93.6152V93.5126V93.4097V93.3064V93.2028V93.0988V92.9946V92.89V92.785V92.6798V92.5742V92.4683V92.3621V92.2556V92.1488V92.0416V91.9342V91.8264V91.7183V91.61V91.5013V91.3924V91.2831V91.1736V91.0637V90.9536V90.8432V90.7325V90.6215V90.5103V90.3988V90.287V90.1749V90.0626V89.95V89.8371V89.724V89.6106V89.4969V89.383V89.2688V89.1544V89.0398V88.9249V88.8097V88.6943V88.5787V88.4628V88.3467V88.2304V88.1138V87.997V87.88V87.7627V87.6453V87.5276V87.4097V87.2916V87.1732V87.0547V86.9359V86.817V86.6978V86.5784V86.4589V86.3391V86.2192V86.099V85.9787V85.8582V85.7375V85.6166V85.4955V85.3743V85.2528V85.1312V85.0095V84.8875V84.7654V84.6431V84.5207V84.3981V84.2753V84.1524V84.0294V83.9062V83.7828V83.6593V83.5356V83.4118V83.2879V83.1638V83.0396V82.9152V82.7908V82.6662V82.5414V82.4166V82.2916V82.1665V82.0413V81.9159V81.7905V81.6649V81.5393V81.4135V81.2876V81.1617V81.0356V80.9094V80.7832V80.6568V80.5304V80.4038V80.2772V80.1505V80.0237V79.8968V79.7699V79.6429V79.5158V79.3886V79.2614V79.1341V79.0068V78.8794V78.7519V78.6244V78.4968V78.3691V78.2415V78.1137V77.9859V77.8581V77.7303V77.6024V77.4744V77.3465V77.2185V77.0904V76.9624V76.8343V76.7062V76.5781V76.45V76.3218V76.1936V76.0655V75.9373V75.8091V75.6809V75.5527V75.4245V75.2963V75.1681V75.0399V74.9117V74.7836V74.6554V74.5273V74.3992V74.2711V74.143V74.015V73.887V73.759V73.631V73.5031V73.3752V73.2474V73.1196V72.9918V72.8641V72.7364V72.6088V72.4813V72.3538V72.2263V72.0989V71.9716V71.8443V71.7171V71.59V71.4629V71.3359V71.209V71.0822V70.9554V70.8288V70.7022V70.5757V70.4493V70.3229V70.1967V70.0706V69.9445V69.8186V69.6928V69.5671V69.4414V69.3159V69.1905V69.0652V68.9401V68.815V68.6901V68.5653V68.4406V68.316V68.1916V68.0673V67.9431V67.8191V67.6952V67.5715V67.4479V67.3244V67.2011V67.078V66.955V66.8321V66.7094V66.5869V66.4645V66.3423V66.2202V66.0984V65.9767V65.8551V65.7338V65.6126V65.4916V65.3708V65.2501V65.1297V65.0094V64.8894V64.7695V64.6498V64.5303V64.411V64.2919V64.1731V64.0544V63.9359V63.8177V63.6996V63.5818V63.4642V63.3468V63.2297V63.1127V62.996V62.8795V62.7633V62.6473V62.5315V62.416V62.3007V62.1856V62.0708V61.9562V61.8419V61.7279V61.614V61.5005V61.3872V61.2742V61.1614V61.0489V60.9367V60.8247V60.713V60.6016V60.4905V60.3796V60.269V60.1587V60.0487V59.939V59.8296V59.7204V59.6116V59.503V59.3948V59.2868V59.1792V59.0719V58.9648V58.8581V58.7517V58.6456V58.5399V58.4344V58.3293V58.2245V58.12V58.0159V57.9121V57.8086V57.7054V57.6026V57.5002V57.398V57.2963V57.1948V57.0937V56.993V56.8926V56.7926V56.693V56.5937V56.4947V56.3961V56.2979V56.2001V56.1026V56.0055V55.9088V55.8125V55.7166V55.621V55.5258V55.431V55.3366V55.2426V55.149V55.0558V54.9629V54.8705V54.7785V54.6869V54.5957V54.5049V54.4145V54.3246V54.235V54.1459V54.0572V53.9689V53.8811V53.7936V53.7066V53.6201V53.534V53.4483V53.363V53.2782V53.1939V53.1099V53.0265V52.9435V52.8609V52.7788V52.6972V52.616V52.5353V52.455V52.3752V52.2959V52.2171V52.1387V52.0608V51.9834V51.9064V51.83V51.754V51.6785V51.6035V51.529V51.455V51.3815V51.3085V51.236V51.164V51.0925V51.0215V50.9511V50.8811V50.8116V50.7427V50.6743V50.6064V50.539V50.4722V50.4059V50.3401V50.2748V50.2101V50.1459V50.0823V50.0192V49.9567V49.8947V49.8332V49.7723V49.7119V49.6522V49.5929V49.5342V49.4761V49.4186V49.3616V49.3052V49.2493V49.1941V49.1394V49.0853V49.0317V48.9788V48.9264V48.8746V48.8234V48.7728V48.7228V48.6734V48.6246V48.5764V48.5288V48.4818V48.4354V48.3897V48.3445V48.2999V48.256V48.2127V48.17V48.1279V48.0865V48.0457V48.0055V47.9659V47.927V47.8887V47.8511V47.8141V47.7777V47.742V47.7069V47.6725V47.6388V47.6057V47.5732V47.5415V47.5103V47.4799V47.4501V47.421V47.3925V47.3647V47.3376V47.3112V47.2855V47.2604V47.236V47.2123V47.1893V47.167V47.1454V47.1245V47.1043V47.0848V47.066V47.0478V47.0304V47.0138V46.9978V46.9825V46.968V46.9541V46.941V46.9286V46.917V46.906V46.8958V46.8864V46.8776V46.8696V46.8624V46.8559V46.8501V46.8451C186.613 46.6528 186.618 46.4555 186.623 46.2512C186.641 45.5273 186.661 44.7163 186.471 43.7383C186.224 42.4698 185.632 40.9231 184.286 38.7704L184.286 38.7704L184.283 38.7659C183.162 37.0129 180.994 35.3754 179.17 34.1976C178.59 33.8234 178.037 33.4907 177.551 33.2105C178.294 33.2295 179.128 33.2609 179.856 33.3129V33.3129L179.858 33.3131C180.185 33.3349 180.767 33.3497 181.521 33.369C181.939 33.3797 182.41 33.3917 182.919 33.407C184.361 33.4503 186.144 33.5204 188.011 33.6602C189.88 33.8002 191.826 34.0095 193.595 34.3299C195.37 34.6513 196.935 35.079 198.063 35.6419C200.633 36.9907 201.903 39.7012 202.425 41.8807C202.433 42.0512 202.473 42.2086 202.5 42.3163C202.501 42.3222 202.503 42.3279 202.504 42.3335C202.54 42.4776 202.556 42.5493 202.556 42.6093Z" fill="#323E48" stroke="#323E48"/>
<path d="M235.63 46.905L240.587 38.2302C240.655 39.0055 240.719 40.0277 240.727 41.1731C240.743 43.7189 240.477 46.8051 239.399 49.1513C238.296 51.5518 236.402 54.364 234.768 56.5927C234.304 57.2251 233.863 57.8082 233.469 58.3188C233.528 58.1274 233.587 57.9295 233.648 57.7266C234.176 55.9599 234.778 53.7894 235.05 52.2357C235.384 50.6939 235.553 49.3503 235.62 48.3857C235.654 47.9036 235.663 47.5092 235.654 47.2282C235.65 47.1086 235.643 46.9978 235.63 46.905Z" fill="#323E48" stroke="#323E48"/>
<path d="M238.992 58.1753L238.988 58.1849L238.985 58.1946C238.6 59.2843 238.085 60.3167 237.662 61.0807C237.452 61.4615 237.265 61.7732 237.132 61.9888C237.107 62.0292 237.084 62.0662 237.063 62.0996C236.926 62.1019 236.746 62.1061 236.542 62.1136C236.092 62.1303 235.511 62.1639 235.022 62.2335C234.61 62.2854 234.036 62.4243 233.479 62.577C233.85 62.2119 234.266 61.7978 234.699 61.3598C236.132 59.9106 237.787 58.1581 238.545 57.0558L238.554 57.0431L238.562 57.0298C239.006 56.2895 239.527 55.5087 240.004 54.8229C239.715 55.9753 239.35 57.2801 238.992 58.1753Z" fill="#323E48" stroke="#323E48"/>
<path d="M221.435 71.9799C221.981 71.5923 222.627 71.1412 223.323 70.6719C225.314 69.3274 227.65 67.8724 229.175 67.3006L229.175 67.3006L229.182 67.2981C230.642 66.7268 232.409 66.4346 233.833 66.2874C234.409 66.2278 234.923 66.1924 235.33 66.1715L231.692 71.6845C231.677 71.6808 231.661 71.6771 231.645 71.6733C231.383 71.6124 231.005 71.5351 230.526 71.4667C229.569 71.3299 228.207 71.2282 226.575 71.3641C224.972 71.4977 223.174 71.7309 221.781 71.93C221.663 71.9469 221.547 71.9636 221.435 71.9799Z" fill="#323E48" stroke="#323E48"/>
<path d="M217.157 75.2694L217.157 75.2695L217.165 75.2682C220.419 74.7477 223.148 74.8783 225.061 75.1376C225.983 75.2627 226.715 75.4177 227.222 75.5436C226.909 75.836 226.502 76.2122 226.05 76.6206C225.024 77.5473 223.785 78.6218 222.885 79.2652C222.448 79.5773 221.448 80.1589 220.531 80.676C220.078 80.9313 219.653 81.1662 219.342 81.3373C219.245 81.3905 219.159 81.4376 219.087 81.4771C219.022 81.4388 218.947 81.3944 218.861 81.3453C218.557 81.1723 218.123 80.9383 217.596 80.6917C216.547 80.2008 215.106 79.6494 213.58 79.4414C211.575 79.1649 208.492 79.5442 205.967 79.9733C205.614 80.0332 205.271 80.0944 204.941 80.1553C205.784 79.7323 206.742 79.2619 207.753 78.7839C209.41 78.0007 211.206 77.1996 212.872 76.554C214.547 75.905 216.058 75.4264 217.157 75.2694Z" fill="#323E48" stroke="#323E48"/>
<path d="M202.82 109.852V109.89L202.825 109.923C202.826 109.925 202.826 109.929 202.827 109.936C202.828 109.952 202.83 109.981 202.831 110.024C202.833 110.109 202.83 110.249 202.809 110.442C202.766 110.829 202.648 111.433 202.339 112.257C201.721 113.906 200.337 116.434 197.258 119.841L197.257 119.841L197.251 119.849C193.9 123.715 189.474 125.596 185.858 126.508C184.053 126.964 182.459 127.175 181.317 127.273C181.088 127.292 180.878 127.307 180.688 127.319C181.112 126.854 181.661 126.23 182.249 125.505C183.529 123.924 185.026 121.824 185.784 119.828C186.078 119.091 186.263 117.918 186.387 116.54C186.513 115.141 186.579 113.473 186.613 111.714C186.658 109.306 186.641 106.706 186.626 104.375C186.619 103.331 186.613 102.341 186.613 101.446C186.615 101.436 186.619 101.424 186.622 101.411C186.64 101.347 186.668 101.252 186.706 101.129C186.781 100.884 186.897 100.532 187.056 100.108C187.376 99.2597 187.867 98.1323 188.557 97.0091C189.95 94.7423 192.069 92.6145 195.114 92.6145C198.113 92.6145 200.059 93.5371 201.249 94.4332C201.847 94.8836 202.259 95.3318 202.52 95.6627C202.65 95.8281 202.742 95.9639 202.8 96.0556C202.808 96.067 202.814 96.0776 202.82 96.0875V109.852Z" fill="#323E48" stroke="#323E48"/>
<path d="M150.271 154.856V155.356H150.771H267.121H267.621V154.856V2.76691V2.26691H267.121H150.771H150.271V2.76691V154.856ZM268.739 156.342H149.285V1.2814H268.739V156.342Z" stroke="#323E48"/>
<path d="M14.0793 207.317L13.7375 207.659L14.0676 208.012L43.5931 239.601H38.7415L9.43259 208.077L37.8068 179.182H42.2141L14.0793 207.317ZM1.43146 179.05H5.32903V239.601H1.43146V179.05Z" fill="#323E48" stroke="#323E48"/>
<path d="M95.9006 218.989L95.7705 218.687H95.4414H65.9235H65.5944L65.4643 218.989L56.5935 239.601H52.7848L79.0922 178.521H82.4057L108.843 239.601H104.771L95.9006 218.989ZM67.3172 214.357L67.018 215.054H67.7767H93.3235H94.0791L93.7837 214.358L81.0765 184.443L80.6187 183.366L80.1568 184.442L67.3172 214.357Z" fill="#323E48" stroke="#323E48"/>
<path d="M130.368 182.683L129.886 182.701V183.183V235.6V236.087L130.373 236.1C135.41 236.233 140.18 236.233 140.711 236.233C150.674 236.233 158.288 233.221 163.414 228.214C168.539 223.208 171.126 216.254 171.126 208.465C171.126 201.21 168.806 194.681 163.839 189.968C158.873 185.257 151.324 182.418 140.976 182.418C137.204 182.418 134.82 182.511 132.054 182.619C131.511 182.64 130.954 182.662 130.368 182.683ZM125.989 179.05H126.415C128.488 179.05 130.708 178.991 133.039 178.928C133.174 178.925 133.309 178.921 133.444 178.918C135.926 178.851 138.534 178.785 141.24 178.785C153.454 178.785 161.951 182.296 167.394 187.723C172.839 193.152 175.288 200.558 175.288 208.465C175.288 217.155 172.382 224.96 166.62 230.593C160.858 236.225 152.191 239.733 140.578 239.733C138.395 239.733 136.148 239.702 133.834 239.67L133.636 239.667C131.254 239.634 128.802 239.601 126.283 239.601H125.989V179.05Z" fill="#323E48" stroke="#323E48"/>
<path d="M199.614 236.1H229.029V239.733H195.084V179.05H228.235V182.683H199.614H199.114V183.183V206.612V207.112H199.614H225.72V210.745H199.614H199.114V211.245V235.6V236.1H199.614Z" fill="#323E48" stroke="#323E48"/>
<path d="M295.948 231.629V179.05H299.581V239.601H296.483L254.541 186.843L253.649 185.722V187.154V239.601H250.017V179.05H253.114L295.056 231.94L295.948 233.064V231.629Z" fill="#323E48" stroke="#323E48"/>
<path d="M366.894 231.341L368.297 234.045C364.135 238.008 356.893 240.395 349.85 240.395C340.834 240.395 333.257 237.326 327.935 231.94C322.614 226.553 319.509 218.81 319.509 209.392C319.509 200.699 322.384 192.949 327.517 187.377C332.646 181.81 340.055 178.388 349.189 178.388C356.593 178.388 362.702 180.255 367.193 183.821L365.466 186.564C361.089 183.398 355.937 181.889 349.321 181.889C341.709 181.889 335.286 184.789 330.769 189.694C326.256 194.596 323.671 201.473 323.671 209.392C323.671 217.579 326.391 224.46 331.093 229.297C335.796 234.135 342.449 236.894 350.248 236.894C356.742 236.894 362.495 234.764 366.894 231.341Z" fill="#323E48" stroke="#323E48"/>
<path d="M390.884 236.1H420.431V239.733H386.487V179.05H419.637V182.683H391.016H390.516V183.183V206.612V207.112H391.016H416.99V210.745H390.884H390.384V211.245V235.6V236.1H390.884Z" fill="#323E48" stroke="#323E48"/>
<path d="M89.0876 270.413C89.0876 266.442 91.9997 263.265 95.9707 263.265C98.4856 263.265 99.9417 264.191 101.265 265.383L100.206 266.574C99.0151 265.515 97.8238 264.721 95.9707 264.721C92.9262 264.721 90.676 267.236 90.676 270.28C90.676 273.457 92.9262 275.972 95.9707 275.972C97.8238 275.972 99.0151 275.31 100.339 273.987L101.398 275.046C99.9417 276.502 98.3533 277.428 95.9707 277.428C91.9997 277.428 89.0876 274.251 89.0876 270.413Z" fill="#B6A999"/>
<path d="M105.104 270.413C105.104 266.574 107.884 263.265 112.119 263.265C116.223 263.265 119.135 266.574 119.135 270.28C119.135 273.987 116.355 277.296 112.119 277.296C107.884 277.428 105.104 274.119 105.104 270.413ZM117.414 270.413C117.414 267.236 115.164 264.721 111.987 264.721C108.81 264.721 106.692 267.236 106.692 270.28C106.692 273.325 108.943 275.972 112.119 275.972C115.296 275.972 117.414 273.457 117.414 270.413Z" fill="#B6A999"/>
<path d="M136.74 277.56L134.886 275.972C133.695 276.899 132.239 277.428 130.651 277.428C126.547 277.428 123.635 274.119 123.635 270.413C123.635 266.706 126.415 263.397 130.651 263.397C134.754 263.397 137.666 266.706 137.666 270.413C137.666 272.133 137.004 273.722 136.078 275.046L137.931 276.634L136.74 277.56ZM133.828 274.913L131.313 272.663L132.372 271.472L134.886 273.854C135.681 272.928 136.078 271.604 136.078 270.28C136.078 267.236 133.828 264.589 130.651 264.589C127.474 264.589 125.356 267.103 125.356 270.148C125.356 273.192 127.606 275.84 130.783 275.84C131.842 275.972 132.901 275.575 133.828 274.913Z" fill="#B6A999"/>
<path d="M142.564 271.472V263.53H144.152V271.339C144.152 274.251 145.741 275.972 148.388 275.972C150.903 275.972 152.491 274.384 152.491 271.472V263.53H154.08V271.339C154.08 275.31 151.829 277.428 148.388 277.428C144.946 277.428 142.564 275.31 142.564 271.472Z" fill="#B6A999"/>
<path d="M159.771 263.53H161.36V277.163H159.771V263.53Z" fill="#B6A999"/>
<path d="M170.758 264.853H166.125V263.53H176.847V264.986H172.214V277.296H170.625V264.853H170.758Z" fill="#B6A999"/>
<path d="M181.744 263.53H183.333V275.84H191.01V277.296H181.744V263.53Z" fill="#B6A999"/>
<path d="M200.673 263.397H202.129L208.35 277.163H206.629L205.041 273.589H197.761L196.172 277.163H194.584L200.673 263.397ZM204.511 272.133L201.467 265.118L198.29 272.133H204.511Z" fill="#B6A999"/>
<path d="M213.115 263.53H214.704L219.734 270.942L224.764 263.53H226.352V277.163H224.764V266.045L219.734 273.325H219.601L214.571 266.045V277.163H213.115V263.53Z" fill="#B6A999"/>
<path d="M239.192 270.413C239.192 266.442 242.104 263.265 246.075 263.265C248.59 263.265 250.046 264.191 251.369 265.383L250.31 266.574C249.119 265.515 247.928 264.721 246.075 264.721C243.03 264.721 240.78 267.236 240.78 270.28C240.78 273.457 243.03 275.972 246.075 275.972C247.928 275.972 249.119 275.31 250.443 273.987L251.502 275.046C250.046 276.502 248.457 277.428 246.075 277.428C242.104 277.428 239.192 274.251 239.192 270.413Z" fill="#B6A999"/>
<path d="M256.267 263.53H266.194V264.986H257.855V269.618H265.268V271.075H257.855V275.84H266.327V277.296H256.399V263.53H256.267Z" fill="#B6A999"/>
<path d="M271.224 263.53H272.68L281.284 274.516V263.53H282.74V277.163H281.549L272.68 265.912V277.163H271.224V263.53Z" fill="#B6A999"/>
<path d="M292.271 264.853H287.638V263.53H298.36V264.986H293.727V277.296H292.138V264.853H292.271Z" fill="#B6A999"/>
<path d="M303.125 263.53H308.949C310.67 263.53 311.993 264.059 312.788 264.853C313.449 265.515 313.847 266.442 313.847 267.501C313.847 269.751 312.258 271.074 310.14 271.472L314.376 277.031H312.523L308.552 271.736H304.581V277.031H302.992V263.53H303.125ZM308.817 270.413C310.802 270.413 312.39 269.354 312.39 267.633C312.39 265.912 311.067 264.986 308.949 264.986H304.713V270.545H308.817V270.413Z" fill="#B6A999"/>
<path d="M319.141 263.53H329.069V264.986H320.73V269.618H328.142V271.075H320.73V275.84H329.201V277.296H319.274V263.53H319.141Z" fill="#B6A999"/>
</svg>
